<svg xmlns="http://www.w3.org/2000/svg" width="60" height="60" viewBox="0 0 60 60" fill="none"><g clip-path="url(#clip0)"><path d="M3.2448 12.9973H10.1354V16.5129H3.2448V12.9973Z" fill="#2E6BC6"></path><path fill-rule="evenodd" clip-rule="evenodd" d="M43.2444 22.2769H51.3031L60 31.7494V42.5909H55.7773C55.0185 45.1388 52.6556 47.0024 49.8645 47.0024C47.0733 47.0024 44.7106 45.1388 43.9517 42.5909H30.6224C29.8635 45.1388 27.5006 47.0024 24.7096 47.0024C21.9185 47.0024 19.5557 45.1388 18.7968 42.5909H13.6511V12.9975H43.2444V22.2769ZM22.0558 40.8331C22.0558 42.2963 23.2463 43.4868 24.7096 43.4868C26.1728 43.4868 27.3633 42.2963 27.3633 40.8331C27.3633 39.3699 26.1728 38.1794 24.7096 38.1794C23.2463 38.1794 22.0558 39.3699 22.0558 40.8331ZM39.7288 39.0752V16.513H17.1667V39.0752H18.7968C19.5556 36.5273 21.9184 34.6636 24.7096 34.6636C27.5008 34.6636 29.8635 36.5273 30.6224 39.0752H39.7288ZM47.2106 40.8331C47.2106 42.2963 48.4012 43.4868 49.8644 43.4868C51.3277 43.4868 52.5182 42.2963 52.5182 40.8331C52.5182 39.3699 51.3277 38.1794 49.8644 38.1794C48.4012 38.1794 47.2106 39.3699 47.2106 40.8331ZM55.7772 39.0752H56.4844V33.1184L49.7581 25.7925H43.2443V39.0752H43.9515C44.7104 36.5273 47.0733 34.6636 49.8644 34.6636C52.6554 34.6636 55.0183 36.5273 55.7772 39.0752Z" fill="#2E6BC6"></path><path d="M10.1354 27.0598H3.2448V30.5755H10.1354V27.0598Z" fill="#2E6BC6"></path><path d="M0 20.0286H10.1355V23.5442H0V20.0286Z" fill="#2E6BC6"></path></g><defs><clipPath id="clip0"><rect width="60" height="60" fill="white"></rect></clipPath></defs></svg>