<svg xmlns="http://www.w3.org/2000/svg" width="60" height="60" viewBox="0 0 60 60" fill="none"><path d="M14.1389 44.843C14.1389 45.5995 13.5093 46.2128 12.7327 46.2128C11.956 46.2128 11.3264 45.5995 11.3264 44.843C11.3264 44.0865 11.956 43.4732 12.7327 43.4732C13.5093 43.4732 14.1389 44.0865 14.1389 44.843Z" fill="#2E6BC6"></path><path fill-rule="evenodd" clip-rule="evenodd" d="M51.9999 30.2275C52.6664 31.0648 53.0169 32.0821 52.996 33.145C52.9717 34.3776 52.4608 35.5324 51.5573 36.397C51.3811 36.5657 51.1936 36.7195 50.9968 36.858C51.6631 37.6953 52.0137 38.7127 51.9928 39.7756C51.9686 41.0081 51.4576 42.1628 50.5541 43.0273C50.3777 43.196 50.1903 43.3497 49.9936 43.4883C50.6599 44.3255 51.0105 45.343 50.9896 46.4059C50.9653 47.6384 50.4543 48.7932 49.5508 49.6576C48.646 50.5232 47.4491 51 46.1807 51H23.8418L19.752 49.4366V51H6V24.9087H19.752V26.7795H22.4914L26.7602 22.9976C29.0495 20.9694 30.3625 18.0772 30.3625 15.0629V13.7506C30.3625 12.4784 30.8996 11.2356 31.836 10.3407C32.765 9.45285 33.9838 8.97507 35.2654 9.001C36.5308 9.02456 37.7162 9.52225 38.6038 10.4025C39.4923 11.2838 39.9818 12.4497 39.9818 13.6851V21.7389H49.1231C50.4292 21.7389 51.7051 22.2622 52.624 23.1744C53.5353 24.0792 54.0237 25.2656 53.9991 26.5147C53.9749 27.7472 53.464 28.902 52.5604 29.7664C52.3842 29.9352 52.1968 30.089 51.9999 30.2275ZM8.8125 48.2603H16.9395V27.6483H8.8125V48.2603ZM39.4579 28.3692H49.1903C50.2708 28.3692 51.1666 27.5137 51.1872 26.4622C51.1971 25.9547 50.9943 25.4683 50.6162 25.0929C50.223 24.7023 49.6787 24.4784 49.1231 24.4784H37.1693V13.6851C37.1693 12.6327 36.2911 11.7602 35.2116 11.74C35.1994 11.7398 35.1872 11.7397 35.175 11.7397C34.667 11.7397 34.1821 11.9365 33.8056 12.2963C33.4048 12.6793 33.1749 13.2093 33.1749 13.7506V15.0629C33.1749 18.8471 31.5266 22.4779 28.6526 25.0242L23.5792 29.5191H19.752V46.4938L24.3739 48.2605H46.1809C47.2614 48.2605 48.1571 47.405 48.1778 46.3535C48.1877 45.8459 47.985 45.3595 47.6069 44.9841C47.2136 44.5935 46.6694 44.3696 46.1137 44.3696H39.458V41.63H47.1841C48.2646 41.63 49.1602 40.7746 49.1809 39.7231C49.1909 39.2155 48.9881 38.7291 48.61 38.3537C48.2167 37.9631 47.6725 37.7392 47.1168 37.7392H39.458V34.9996H48.1873C49.2677 34.9996 50.1634 34.1442 50.1841 33.0927C50.1941 32.5851 49.9913 32.0987 49.6131 31.7232C49.2198 31.3327 48.6757 31.1088 48.12 31.1088H39.4579V28.3692Z" fill="#2E6BC6"></path></svg>