<svg xmlns="http://www.w3.org/2000/svg" width="60" height="60" viewBox="0 0 60 60" fill="none"><path d="M25.6241 11.9991H44.0883C49.0022 11.9991 53 16.0315 53 20.9879C53 25.9443 49.0022 29.9767 44.0883 29.9767H39.0331V27.2581H44.0883C47.516 27.2581 50.3047 24.4453 50.3047 20.9879C50.3047 17.5306 47.516 14.7178 44.0883 14.7178H25.6241L28.6744 17.7945L26.7686 19.7168L20.4647 13.3585L26.7686 7L28.6744 8.92236L25.6241 11.9991Z" fill="#2E6BC6"></path><path fill-rule="evenodd" clip-rule="evenodd" d="M7 53V23.6957H36.0528V53H7ZM24.105 26.4144H18.9478V31.1042L21.5264 30.2587L24.105 31.1042V26.4144ZM9.69531 26.4144V50.2814H33.3575V26.4144H26.8003V34.8468L21.5264 33.1174L16.2525 34.8468V26.4144H9.69531Z" fill="#2E6BC6"></path></svg>