<?xml version="1.0" encoding="UTF-8"?> <svg xmlns="http://www.w3.org/2000/svg" width="18" height="18" viewBox="0 0 18 18" fill="none"><path d="M5 5.5L4.21115 5.89443C4.07229 5.96386 3.91918 6 3.76393 6L2 6V4H3.76393C3.91918 4 4.07229 4.03615 4.21115 4.10557L5 4.5L5 5.5Z" fill="black"></path><path d="M11 6H6V4H11C12.6569 4 14 5.34315 14 7C14 8.65685 12.6569 10 11 10H7C6.44772 10 6 10.4477 6 11C6 11.5523 6.44772 12 7 12H12V14H7C5.34315 14 4 12.6569 4 11C4 9.34315 5.34315 8 7 8H11C11.5523 8 12 7.55228 12 7C12 6.44772 11.5523 6 11 6Z" fill="black"></path><path d="M13.7889 12.1056L13 12.5V13.5L13.7889 13.8944C13.9277 13.9639 14.0808 14 14.2361 14H16V12H14.2361C14.0808 12 13.9277 12.0361 13.7889 12.1056Z" fill="black"></path></svg> 