<?xml version="1.0" encoding="UTF-8"?> <svg xmlns="http://www.w3.org/2000/svg" width="48" height="48" viewBox="0 0 48 48" fill="none"><path d="M17.1856 26.3157H23.1431L20.5357 33.5124C20.2641 34.2622 21.1769 34.8523 21.6839 34.2546L31.3237 22.8912C31.719 22.4253 31.4063 21.6843 30.8144 21.6843L24.8569 21.6843L27.4643 14.4876C27.7359 13.7378 26.8231 13.1477 26.3161 13.7454L16.6763 25.1088C16.281 25.5747 16.5937 26.3157 17.1856 26.3157Z" fill="black"></path><path fill-rule="evenodd" clip-rule="evenodd" d="M46 24C46 36.1503 36.1503 46 24 46C11.8497 46 2 36.1503 2 24C2 11.8497 11.8497 2 24 2C36.1503 2 46 11.8497 46 24ZM43 24C43 34.4934 34.4934 43 24 43C13.5066 43 5 34.4934 5 24C5 13.5066 13.5066 5 24 5C34.4934 5 43 13.5066 43 24Z" fill="black"></path></svg> 