<?xml version="1.0" encoding="UTF-8"?> <svg xmlns="http://www.w3.org/2000/svg" width="48" height="48" viewBox="0 0 48 48" fill="none"><g clip-path="url(#clip0_2212_1513)"><path d="M26.7122 3.48488C29.6322 3.06773 32.6027 4.43169 34.2967 6.70797C35.9329 8.90664 36.3869 11.9655 34.252 15.1679C33.2668 16.6456 31.2026 17.9418 28.233 19.2057C25.2999 20.454 21.8579 21.5276 18.3153 22.7723C14.8405 23.9931 11.3049 25.3686 8.46626 27.181C5.62282 28.9965 3.28591 31.3738 2.53734 34.6675C1.82234 37.8135 2.45211 40.3433 3.94593 42.2765C5.38736 44.1419 7.51613 45.3012 9.55364 46.036C11.6091 46.7773 13.7188 47.1392 15.2911 47.3184C16.188 47.4207 17.0951 47.4982 17.9989 47.5C18.0015 47.5 17.9988 44.5 18.0008 44.5C17.2098 44.4968 16.4159 44.4272 15.6309 44.3377C14.1875 44.1732 12.3284 43.8476 10.5714 43.2139C8.79645 42.5738 7.26897 41.6705 6.31978 40.4422C5.42297 39.2816 4.92774 37.6864 5.46274 35.3324C5.96417 33.1261 7.56477 31.3159 10.0807 29.7095C12.6015 28.1001 15.8471 26.8193 19.3098 25.6026C22.7045 24.4099 26.3565 23.2647 29.4078 21.9661C32.4224 20.6831 35.2332 19.1043 36.7481 16.832C39.6132 12.5344 39.0672 8.09327 36.7034 4.91694C34.3974 1.81823 30.3679 -0.0678209 26.2879 0.515032L26.7122 3.48488Z" fill="black"></path><path fill-rule="evenodd" clip-rule="evenodd" d="M30.021 45.7487L21.5357 47.1629L22.9499 38.6776L40.6276 21L47.6986 28.071L30.021 45.7487ZM43.456 28.071L40.6276 25.2426L25.751 40.1191L25.1853 43.5132L28.5795 42.9476L43.456 28.071Z" fill="black"></path><path d="M0.715351 5.45007C0.197866 4.02699 -0.0940327 2.42532 0.00315929 0.903286C0.00354062 0.897443 1.45902 0.997221 1.50004 0.999957C1.54499 1.00295 2.99656 1.10377 2.99709 1.09399C2.92878 2.20539 3.15773 3.3881 3.53473 4.42484C4.15431 6.12868 5.43851 7.91701 8.31434 8.53325C10.2905 8.95671 12.1311 8.41098 14.0895 7.30079C16.2329 6.08565 18.1231 4.47961 20.1616 3.10547L21.8385 5.59303C19.7343 7.01152 17.7821 8.65593 15.569 9.91059C13.2887 11.2033 10.6713 12.1064 7.68575 11.4667C3.56157 10.5829 1.59577 7.87123 0.715351 5.45007Z" fill="black"></path></g><defs><clipPath id="clip0_2212_1513"><rect width="48" height="48" fill="white"></rect></clipPath></defs></svg> 