<?xml version="1.0" encoding="UTF-8"?> <svg xmlns="http://www.w3.org/2000/svg" width="48" height="48" viewBox="0 0 48 48" fill="none"><g clip-path="url(#clip0_2212_1517)"><path fill-rule="evenodd" clip-rule="evenodd" d="M17.3431 3.07973C17.4604 3.19697 17.5737 3.3156 17.6832 3.43558C19.1911 2.71495 20.4533 2.25717 21.3349 1.98011C21.7852 1.83858 22.2407 1.70546 22.7032 1.60928C22.7091 1.6081 23.292 4.55093 23.2951 4.55031C22.9369 4.62781 22.5838 4.73227 22.2343 4.84209C21.538 5.06094 20.5347 5.42046 19.3234 5.97955C20.4597 8.78358 19.7383 11.9983 16.636 15.1005C12.3934 19.3432 2.84743 21.111 1.07966 19.3432C-0.688103 17.5754 1.07966 8.02948 5.3223 3.78684C9.56495 -0.455801 14.0179 -0.245462 17.3431 3.07973ZM7.44362 5.90816C9.18543 4.16635 10.6726 3.62699 11.7672 3.59399C12.7492 3.56437 13.8242 3.92887 14.9244 4.91864C12.7273 6.23397 10.2602 8.0412 7.79714 10.5043L9.91846 12.6256C12.2582 10.2859 14.5937 8.59566 16.6444 7.38621C16.7853 7.82222 16.8412 8.247 16.8289 8.65567C16.7959 9.75023 16.2565 11.2374 14.5147 12.9792C12.9419 14.552 10.0972 15.872 7.2312 16.5582C5.99385 16.8545 4.68818 17.0867 3.40999 17.0129C3.33612 15.7347 3.56835 14.429 3.86462 13.1917C4.55083 10.3257 5.87085 7.48093 7.44362 5.90816Z" fill="black"></path><path d="M43.4999 24C43.4999 14.1776 36.2361 6.04911 26.7875 4.69759L27.2123 1.72782C38.1175 3.28769 46.4999 12.6637 46.4999 24H43.4999Z" fill="black"></path><path d="M4.49995 24C4.49995 33.8225 11.7638 41.951 21.2123 43.3025L20.7875 46.2723C9.88234 44.7124 1.49995 35.3364 1.49995 24H4.49995Z" fill="black"></path><path fill-rule="evenodd" clip-rule="evenodd" d="M30.3167 44.5645C33.9675 48.5672 39.0356 47.8552 42.6776 44.2132C46.9202 39.9706 48.688 30.4247 46.9202 28.6569C45.1525 26.8891 35.6065 28.6569 31.3639 32.8995C28.2616 36.0018 27.5402 39.2165 28.6765 42.0205C27.4652 42.5796 26.4619 42.9391 25.7656 43.158C25.4159 43.2679 25.0629 43.371 24.7048 43.4498C24.7104 43.4486 25.2852 46.3931 25.2999 46.3902C25.7619 46.2957 26.2155 46.1613 26.665 46.02C27.5466 45.7429 28.8088 45.2852 30.3167 44.5645ZM36.2327 44.4061C37.3273 44.3731 38.8145 43.8337 40.5563 42.0919C42.129 40.5191 43.4491 37.6744 44.1353 34.8084C44.4315 33.5711 44.6637 32.2654 44.5899 30.9872C43.3117 30.9134 42.006 31.1456 40.7687 31.4418C37.9027 32.1281 35.058 33.4481 33.4852 35.0209C31.7434 36.7627 31.204 38.2499 31.171 39.3444C31.1587 39.7531 31.2146 40.1779 31.3555 40.6139C33.4062 39.4044 35.7417 37.7142 38.0814 35.3745L40.2028 37.4958C37.7397 39.9589 35.2726 41.7661 33.0755 43.0814C34.1757 44.0712 35.2507 44.4357 36.2327 44.4061Z" fill="black"></path><path d="M34.1889 17.9146L31.811 16.0855L22.7145 27.9109L15.8999 22.8L14.0999 25.2L23.2854 32.0891L34.1889 17.9146Z" fill="black"></path></g><defs><clipPath id="clip0_2212_1517"><rect width="48" height="48" fill="white"></rect></clipPath></defs></svg> 