<?xml version="1.0" encoding="UTF-8"?> <svg xmlns="http://www.w3.org/2000/svg" width="18" height="18" viewBox="0 0 18 18" fill="none"><path fill-rule="evenodd" clip-rule="evenodd" d="M14 6C14 8.76142 11.7614 11 9 11C6.23858 11 4 8.76142 4 6C4 3.23858 6.23858 1 9 1C11.7614 1 14 3.23858 14 6ZM12 6C12 7.65685 10.6569 9 9 9C7.34315 9 6 7.65685 6 6C6 4.34315 7.34315 3 9 3C10.6569 3 12 4.34315 12 6Z" fill="black"></path><path d="M10 13C10 12.4477 9.55228 12 9 12C8.44772 12 8 12.4477 8 13V16C8 16.5523 8.44772 17 9 17C9.55228 17 10 16.5523 10 16V13Z" fill="black"></path></svg> 