<?xml version="1.0" encoding="UTF-8"?> <svg xmlns="http://www.w3.org/2000/svg" width="48" height="48" viewBox="0 0 48 48" fill="none"><path d="M15.6429 15.4284V23.9999H18.6429V15.4284H15.6429Z" fill="black"></path><path d="M29.3572 15.4284V23.9999H32.3572V15.4284H29.3572Z" fill="black"></path><path d="M22.5001 11.9999V29.1427H25.5001V11.9999H22.5001Z" fill="black"></path><path fill-rule="evenodd" clip-rule="evenodd" d="M23.0855 2.2395L0.799805 19.3824V21.7602L23.0855 38.9031H24.9147L47.2004 21.7602V19.3824L24.9147 2.2395H23.0855ZM24.0001 35.8217L4.17455 20.5713L24.0001 5.32089L43.8256 20.5713L24.0001 35.8217Z" fill="black"></path><path d="M0.799805 30.3317L23.0855 47.4746C23.6247 47.8893 24.3755 47.8893 24.9147 47.4746L47.2004 30.3317L45.3712 27.9539L24.0001 44.3932L2.62894 27.9539L0.799805 30.3317Z" fill="black"></path></svg> 