<?xml version="1.0" encoding="UTF-8"?> <svg xmlns="http://www.w3.org/2000/svg" width="48" height="48" viewBox="0 0 48 48" fill="none"><path d="M34 8C32.3431 8 31 9.34315 31 11C31 12.6569 32.3431 14 34 14H42V12.5L44 12.5V9.5L42 9.5V8H34Z" fill="black"></path><path d="M0.5 17.5C0.5 13.0817 4.08172 9.5 8.5 9.5H29V12.5H8.5C5.73858 12.5 3.5 14.7386 3.5 17.5C3.5 20.2614 5.73858 22.5 8.5 22.5H39.5C43.9183 22.5 47.5 26.0817 47.5 30.5C47.5 34.9183 43.9183 38.5 39.5 38.5H19V35.5H39.5C42.2614 35.5 44.5 33.2614 44.5 30.5C44.5 27.7386 42.2614 25.5 39.5 25.5H8.5C4.08172 25.5 0.5 21.9183 0.5 17.5Z" fill="black"></path><path d="M6 38.5H4L4 35.5H6L6 34L14 34C15.6569 34 17 35.3431 17 37C17 38.6569 15.6569 40 14 40H6V38.5Z" fill="black"></path></svg> 