<?xml version="1.0" encoding="UTF-8"?> <svg xmlns="http://www.w3.org/2000/svg" width="18" height="18" viewBox="0 0 18 18" fill="none"><path fill-rule="evenodd" clip-rule="evenodd" d="M14 3C14 1.89543 13.1046 1 12 1H6C4.89543 1 4 1.89543 4 3V15C4 16.1046 4.89543 17 6 17H12C13.1046 17 14 16.1046 14 15L14 3ZM7.47014 10.1976H8.37409L8.23347 12.35C8.19194 12.9857 8.85476 13.2525 9.10677 12.7014L10.9353 8.70293C11.1179 8.30374 10.8922 7.80243 10.5299 7.80243H9.62591L9.76653 5.65003C9.80806 5.01428 9.14524 4.74754 8.89323 5.29859L7.06465 9.29708C6.8821 9.69626 7.10784 10.1976 7.47014 10.1976Z" fill="black"></path></svg> 