<?xml version="1.0" encoding="UTF-8"?> <svg xmlns="http://www.w3.org/2000/svg" width="80" height="80" viewBox="0 0 80 80" fill="none"><g clip-path="url(#clip0)"><path d="M47.4349 21.4268C55.3507 15.6997 62.5277 12.3755 67.157 12.4156C67.137 10.7535 66.6767 9.36757 65.7548 8.44642C62.2078 4.90199 52.6052 8.41352 41.6433 16.4636C43.5671 18.0055 45.511 19.6847 47.4349 21.4268Z" fill="url(#paint0_radial)"></path><path d="M22.5852 45.9175C24.3287 47.8999 26.1723 49.8824 28.1363 51.8449C29.9599 53.6872 31.8236 55.4093 33.6473 57.0514C35.5912 55.5896 37.5551 53.9876 39.5391 52.2654C37.515 50.4832 35.4709 48.5808 33.4269 46.5382C31.2625 44.3755 29.2385 42.1728 27.3347 40.0101C29.2184 37.8474 31.2425 35.6446 33.4269 33.4819C35.4509 31.4594 37.5258 29.499 39.5699 27.7168C37.5859 25.9946 35.5927 24.3803 33.6688 22.9185C31.8251 24.5606 29.9599 26.333 28.1363 28.1753C26.1723 30.1377 24.3086 32.1202 22.5651 34.1027C22.1643 33.582 21.7836 33.0614 21.4228 32.5608C15.7114 24.6108 12.4048 17.4419 12.4449 12.8161C10.7816 12.8361 9.43888 13.2767 8.51704 14.1978C4.96994 17.7422 8.43688 27.3543 16.4729 38.328C16.753 38.7197 17.0428 39.1017 17.3355 39.4875C17.4618 39.6539 17.5886 39.8211 17.7154 39.9901C17.2946 40.5508 16.8737 41.1115 16.4729 41.6521C8.43688 52.6259 4.95185 62.2582 8.49894 65.8026C9.42079 66.7238 10.7615 67.144 12.4249 67.164C12.3848 62.5382 15.6914 55.3693 21.4228 47.4394C21.8036 46.9387 22.1844 46.4381 22.5852 45.9175Z" fill="url(#paint1_radial)"></path><path d="M67.1484 67.5641C67.1283 69.2262 66.6731 70.5982 65.7512 71.5194C62.2041 75.0638 52.5619 71.5837 41.6 63.5537C43.5239 61.9917 45.4907 60.295 47.4346 58.5529C55.3504 64.28 62.5191 67.6042 67.1484 67.5641Z" fill="url(#paint2_radial)"></path><path d="M40 64.8411C56.5331 77.7973 72.004 83.5044 77.7555 77.7572C83.507 72.01 77.7956 56.5307 64.8497 39.99C77.8156 23.4493 83.527 7.96999 77.7755 2.22281C72.004 -3.50435 56.5331 2.20278 40 15.159C23.4669 2.20278 7.99598 -3.50435 2.24448 2.24283C-3.50702 7.99002 2.2044 23.4694 15.1503 40.01C2.18436 56.5507 -3.52706 72.0301 2.22444 77.7773C7.97594 83.5044 23.4469 77.7973 40 64.8411ZM65.7515 71.5094C62.2044 75.0539 52.6052 71.5695 41.6433 63.5194C43.5671 61.9575 45.511 60.2954 47.4349 58.5532C49.3387 56.8311 51.2625 55.0288 53.1463 53.1264C54.8898 51.3843 56.5531 49.6221 58.1563 47.8599C63.8677 55.7697 67.1743 62.9387 67.1343 67.5645C67.1343 69.2466 66.6733 70.5883 65.7515 71.5094ZM65.7715 8.49064C66.6934 9.4118 67.1343 10.7535 67.1543 12.4156C67.1944 17.0413 63.8878 24.2103 58.1763 32.1202C56.5731 30.358 54.9098 28.5958 53.1663 26.8536C51.2825 24.9712 49.3787 23.149 47.4549 21.4268C45.511 19.6846 43.5872 18.0226 41.6633 16.4606C52.6052 8.43057 62.2244 4.94621 65.7715 8.49064ZM8.51702 65.8023C4.96993 62.2579 8.4569 52.6458 16.493 41.6721C16.8938 41.1314 17.3146 40.5707 17.7355 40.01C17.3146 39.4493 16.8938 38.9087 16.493 38.348C8.43686 27.3542 4.96993 17.7422 8.51702 14.1978C9.43887 13.2766 10.7816 12.8361 12.4449 12.8161C17.0741 12.776 24.2284 16.1002 32.1242 21.8073C30.3607 23.4093 28.5972 25.0914 26.8337 26.8336C24.9499 28.7159 23.0763 30.5955 21.3729 32.4979C21.7537 33.0185 22.1677 33.591 22.5634 34.1116C24.3441 32.1889 26.2053 30.0977 28.1892 28.1352C30.0129 26.2929 31.8437 24.5707 33.6673 22.9287C35.6112 24.3905 37.5751 25.9925 39.5591 27.7147C41.7435 29.6171 43.9479 31.6596 46.1323 33.8423C48.1563 35.8849 50.0801 37.9274 51.8637 39.97C50.0801 42.0125 48.1563 44.0751 46.1323 46.0977C43.9479 48.2804 41.7435 50.3229 39.5591 52.2253C37.5751 53.9475 35.5912 55.5495 33.6673 57.0113C31.8236 55.3692 29.9799 53.6471 28.1563 51.8048C26.1924 49.8423 24.3286 47.8599 22.6052 45.8774C22.2244 46.398 21.7973 46.9187 21.4366 47.4193C23.16 49.3217 24.9699 51.2241 26.8537 53.1064C28.5972 54.8686 30.3607 56.5307 32.1443 58.1327C24.2485 63.8599 17.0741 67.164 12.4649 67.1239C10.7816 67.164 9.43887 66.7234 8.51702 65.8023Z" fill="url(#paint3_radial)"></path></g><defs><radialGradient id="paint0_radial" cx="0" cy="0" r="1" gradientUnits="userSpaceOnUse" gradientTransform="translate(22.5 41) scale(71.5 71.4392)"><stop stop-color="#D54141"></stop><stop offset="1" stop-color="#682323"></stop></radialGradient><radialGradient id="paint1_radial" cx="0" cy="0" r="1" gradientUnits="userSpaceOnUse" gradientTransform="translate(22.5 41) scale(71.5 71.4392)"><stop stop-color="#D54141"></stop><stop offset="1" stop-color="#682323"></stop></radialGradient><radialGradient id="paint2_radial" cx="0" cy="0" r="1" gradientUnits="userSpaceOnUse" gradientTransform="translate(22.5 41) scale(71.5 71.4392)"><stop stop-color="#D54141"></stop><stop offset="1" stop-color="#682323"></stop></radialGradient><radialGradient id="paint3_radial" cx="0" cy="0" r="1" gradientUnits="userSpaceOnUse" gradientTransform="translate(49.5 39.9972) rotate(-180) scale(49.5 49.4628)"><stop offset="0.161765" stop-color="#E34545"></stop><stop offset="1" stop-color="#802323"></stop></radialGradient><clipPath id="clip0"><rect width="80" height="80" fill="white"></rect></clipPath></defs></svg> 