<?xml version="1.0" encoding="UTF-8"?> <svg xmlns="http://www.w3.org/2000/svg" width="18" height="18" viewBox="0 0 18 18" fill="none"><path d="M4.66699 7C4.66699 5.89543 5.56242 5 6.66699 5H10.667C11.7716 5 12.667 5.89543 12.667 7V11C12.667 12.1046 11.7716 13 10.667 13H6.66699C5.56242 13 4.66699 12.1046 4.66699 11V7Z" fill="black"></path><path d="M10.2796 4H7.05442C6.37186 4 5.88989 3.3313 6.10573 2.68377L6.43907 1.68377C6.57518 1.27543 6.95732 1 7.38775 1H9.94623C10.3767 1 10.7588 1.27543 10.8949 1.68377L11.2282 2.68377C11.4441 3.3313 10.9621 4 10.2796 4Z" fill="black"></path><path d="M10.2796 14H7.05442C6.37186 14 5.88989 14.6687 6.10573 15.3162L6.43907 16.3162C6.57518 16.7246 6.95732 17 7.38775 17H9.94623C10.3767 17 10.7588 16.7246 10.8949 16.3162L11.2282 15.3162C11.4441 14.6687 10.9621 14 10.2796 14Z" fill="black"></path></svg> 